<svg id="svg" version="1.1" xmlns="http://www.w3.org/2000/svg" xmlns:xlink="http://www.w3.org/1999/xlink" width="400" height="400" viewBox="0, 0, 400,400"><g id="svgg"><path id="path0" d="M175.800 62.246 C 175.140 62.609,173.430 63.841,172.000 64.984 C 170.570 66.128,167.282 68.669,164.694 70.632 C 162.105 72.594,157.335 76.223,154.094 78.695 C 150.852 81.168,148.053 83.242,147.874 83.304 C 147.694 83.367,147.514 99.884,147.474 120.009 L 147.400 156.600 145.739 161.400 C 144.825 164.040,143.094 168.270,141.891 170.800 C 139.477 175.877,138.266 178.594,134.581 187.200 C 133.215 190.390,130.892 195.700,129.419 199.000 C 127.946 202.300,126.380 205.900,125.939 207.000 C 124.992 209.362,124.787 209.825,121.679 216.600 C 120.367 219.460,118.625 223.510,117.807 225.600 C 116.990 227.690,114.901 232.401,113.166 236.069 C 111.431 239.737,109.723 243.607,109.371 244.669 C 109.019 245.731,108.262 247.288,107.690 248.130 C 106.689 249.602,106.961 250.842,108.128 250.121 C 108.330 249.996,109.058 249.754,109.747 249.583 C 110.436 249.412,112.440 248.874,114.200 248.387 C 115.960 247.901,120.280 246.818,123.800 245.981 C 127.320 245.144,139.470 242.115,150.800 239.249 C 173.908 233.405,173.492 233.510,183.400 231.036 C 187.360 230.048,192.400 228.781,194.600 228.222 C 196.800 227.663,201.120 226.588,204.200 225.833 C 221.750 221.532,222.880 221.137,225.305 218.453 C 228.976 214.389,228.806 217.094,228.758 163.480 C 228.694 91.071,228.785 92.836,224.934 89.120 C 221.264 85.577,218.168 85.442,207.600 88.363 C 205.950 88.819,201.990 89.828,198.800 90.606 C 195.610 91.384,191.934 92.282,190.630 92.601 C 187.017 93.487,187.200 94.146,187.200 80.230 L 187.200 68.157 186.187 66.124 C 184.279 62.295,179.178 60.391,175.800 62.246 M237.966 288.300 C 237.947 288.465,237.902 293.010,237.866 298.400 L 237.800 308.200 231.893 308.311 C 224.448 308.450,223.844 308.100,224.067 303.766 C 224.208 301.001,223.786 300.474,221.742 300.868 C 220.059 301.192,219.378 305.969,220.637 308.622 C 221.873 311.226,223.134 311.487,235.722 311.740 L 246.844 311.963 246.722 310.282 L 246.600 308.600 244.600 308.400 L 242.600 308.200 242.493 298.100 L 242.386 288.000 240.193 288.000 C 238.987 288.000,237.985 288.135,237.966 288.300 M213.625 289.927 C 212.648 289.996,211.658 290.292,211.425 290.584 C 211.191 290.876,209.585 292.979,207.856 295.257 C 203.222 301.364,202.815 301.303,202.806 294.500 L 202.800 290.000 201.200 290.000 L 199.600 290.000 199.600 300.800 L 199.600 311.600 201.200 311.600 L 202.800 311.600 202.800 307.627 C 202.800 303.699,202.813 303.645,203.962 302.827 C 206.129 301.284,205.906 301.070,210.738 309.317 L 212.076 311.600 214.253 311.600 L 216.430 311.600 214.815 309.222 C 213.927 307.914,213.200 306.742,213.200 306.618 C 213.200 306.494,212.182 304.862,210.937 302.992 C 208.390 299.164,208.388 298.985,210.895 296.121 C 211.628 295.285,212.713 293.941,213.307 293.135 C 213.902 292.329,214.675 291.382,215.026 291.031 C 215.976 290.081,215.601 289.786,213.625 289.927 M229.905 295.619 C 228.681 296.350,228.278 297.540,228.815 298.837 C 229.196 299.757,229.191 300.128,228.792 300.610 C 228.514 300.945,228.387 301.321,228.512 301.445 C 228.864 301.797,234.000 301.150,234.000 300.753 C 234.000 299.998,233.746 299.869,232.200 299.835 C 229.764 299.782,229.695 297.075,232.124 296.874 C 233.302 296.777,233.620 296.595,233.521 296.074 C 233.370 295.276,230.982 294.976,229.905 295.619 " stroke="none" fill="#e4f11c" fill-rule="evenodd"></path><path id="path1" d="M229.012 114.722 C 228.895 114.838,228.800 136.404,228.800 162.647 C 228.800 217.175,228.974 214.391,225.305 218.453 C 222.880 221.137,221.750 221.532,204.200 225.833 C 201.120 226.588,196.800 227.663,194.600 228.222 C 192.400 228.781,187.360 230.048,183.400 231.036 C 173.492 233.510,173.908 233.405,150.800 239.249 C 139.470 242.115,127.320 245.144,123.800 245.981 C 117.584 247.459,112.655 248.754,110.200 249.552 C 109.403 249.811,122.021 249.944,147.800 249.948 C 169.140 249.951,186.889 249.964,187.243 249.977 C 187.903 250.001,194.296 256.894,201.400 265.239 C 215.895 282.269,216.381 282.694,220.861 282.288 C 227.402 281.695,228.000 280.122,228.000 263.497 C 228.000 253.496,228.117 250.372,228.500 250.124 C 228.775 249.946,236.020 249.800,244.600 249.800 C 263.385 249.800,265.115 249.309,268.533 243.000 L 269.400 241.400 269.505 183.129 L 269.610 124.858 268.769 122.610 C 267.673 119.680,264.536 116.422,261.800 115.373 C 259.861 114.629,229.704 114.030,229.012 114.722 M317.408 280.791 C 316.879 281.375,316.747 281.989,316.901 283.140 C 317.202 285.380,316.765 285.913,315.135 285.298 C 313.684 284.750,312.490 285.306,313.603 286.011 C 315.528 287.227,320.127 286.005,321.205 283.991 C 322.670 281.253,319.448 278.537,317.408 280.791 M320.182 281.944 C 320.650 283.417,319.084 285.089,318.338 283.914 C 317.942 283.290,317.900 281.833,318.267 281.467 C 318.801 280.932,319.952 281.219,320.182 281.944 M263.085 288.248 C 262.928 288.405,262.800 293.723,262.800 300.067 L 262.800 311.600 265.006 311.600 L 267.212 311.600 267.106 299.900 L 267.000 288.200 265.185 288.082 C 264.187 288.016,263.242 288.091,263.085 288.248 M70.291 289.708 C 59.940 293.087,62.597 312.000,73.422 312.000 C 74.497 312.000,75.069 312.417,76.985 314.600 L 79.268 317.200 81.634 317.200 C 84.511 317.200,84.506 317.299,81.794 314.210 C 79.531 311.633,79.303 310.675,80.836 310.189 C 85.009 308.864,86.179 297.256,82.611 292.578 C 80.452 289.748,74.450 288.350,70.291 289.708 M95.891 289.708 C 87.272 292.521,87.215 308.413,95.814 311.343 C 105.442 314.623,112.978 306.293,109.834 295.846 C 108.244 290.563,101.868 287.756,95.891 289.708 M165.182 291.500 C 164.701 292.765,163.627 295.780,162.795 298.200 C 161.964 300.620,160.558 304.625,159.672 307.100 L 158.061 311.600 160.371 311.600 L 162.681 311.600 163.385 309.000 L 164.089 306.400 168.610 306.400 L 173.131 306.400 173.875 308.900 L 174.620 311.400 176.961 311.521 C 179.079 311.631,179.275 311.574,179.021 310.921 C 178.680 310.048,177.281 306.089,174.036 296.821 C 171.303 289.014,171.453 289.215,168.329 289.206 L 166.057 289.200 165.182 291.500 M249.973 290.051 C 249.330 291.251,250.084 292.800,251.311 292.800 C 252.466 292.800,253.200 292.100,253.200 291.000 C 253.200 289.187,250.811 288.484,249.973 290.051 M255.620 289.776 C 255.357 290.093,255.200 290.858,255.271 291.476 C 255.436 292.917,257.898 293.172,258.402 291.800 C 259.123 289.837,256.907 288.225,255.620 289.776 M313.173 290.051 C 312.530 291.251,313.284 292.800,314.511 292.800 C 315.666 292.800,316.400 292.100,316.400 291.000 C 316.400 289.187,314.011 288.484,313.173 290.051 M318.880 289.680 C 318.616 289.944,318.400 290.538,318.400 291.000 C 318.400 292.886,320.882 293.536,321.650 291.851 C 322.506 289.971,320.310 288.250,318.880 289.680 M116.000 300.562 L 116.000 311.600 119.980 311.600 C 129.530 311.600,133.542 308.675,133.919 301.437 C 134.352 293.126,130.976 289.928,121.500 289.672 L 116.000 289.523 116.000 300.562 M139.600 300.600 L 139.600 311.600 141.800 311.600 L 144.000 311.600 144.000 307.427 C 144.000 303.605,144.067 303.233,144.800 303.000 C 146.321 302.517,147.122 303.242,149.656 307.396 L 152.200 311.567 154.524 311.583 C 156.283 311.596,156.772 311.479,156.539 311.100 C 156.370 310.825,155.010 308.810,153.516 306.622 C 150.346 301.980,150.379 302.136,152.241 300.650 C 155.102 298.368,155.519 294.503,153.192 291.852 C 151.631 290.074,149.748 289.600,144.254 289.600 L 139.600 289.600 139.600 300.600 M178.559 290.163 C 177.860 291.984,178.493 292.595,181.200 292.714 C 184.899 292.877,184.800 292.598,184.800 302.876 L 184.800 311.600 186.793 311.600 L 188.785 311.600 188.893 302.300 L 189.000 293.000 192.000 292.800 L 195.000 292.600 195.000 291.200 L 195.000 289.800 186.891 289.692 C 180.110 289.601,178.745 289.678,178.559 290.163 M77.887 293.494 C 80.962 295.509,81.283 303.704,78.413 306.916 C 76.740 308.789,72.329 308.848,70.424 307.023 C 66.724 303.478,68.166 293.579,72.515 292.666 C 73.937 292.367,76.853 292.817,77.887 293.494 M103.487 293.494 C 106.562 295.509,106.883 303.704,104.013 306.916 C 102.340 308.789,97.929 308.848,96.024 307.023 C 92.324 303.478,93.766 293.579,98.115 292.666 C 99.537 292.367,102.453 292.817,103.487 293.494 M126.411 293.605 C 130.569 295.727,130.881 304.368,126.896 307.049 C 125.489 307.995,122.157 308.631,120.823 308.207 C 119.994 307.944,119.476 293.857,120.267 293.067 C 120.864 292.469,124.872 292.820,126.411 293.605 M149.100 293.596 C 151.590 295.114,150.537 298.838,147.454 299.416 C 144.425 299.985,144.213 299.776,144.084 296.100 L 143.968 292.800 145.884 292.801 C 147.088 292.802,148.283 293.098,149.100 293.596 M169.076 293.700 C 169.254 293.975,169.978 295.993,170.686 298.185 C 172.185 302.827,172.172 302.853,168.400 302.703 C 165.290 302.580,165.301 302.625,167.009 296.900 C 168.099 293.249,168.442 292.718,169.076 293.700 M290.271 296.055 C 289.591 297.787,289.676 298.400,290.597 298.400 C 291.760 298.400,295.065 302.193,295.939 304.530 C 297.424 308.497,297.571 308.359,291.700 308.488 L 286.600 308.600 286.476 310.100 L 286.352 311.600 304.785 311.600 L 323.218 311.600 323.109 304.100 L 323.000 296.600 320.290 296.482 C 311.852 296.112,306.576 300.940,309.416 306.432 C 310.328 308.195,309.934 308.400,305.625 308.400 C 301.318 308.400,301.062 308.276,300.652 306.000 C 300.007 302.415,297.035 297.848,293.840 295.531 C 291.699 293.979,291.049 294.074,290.271 296.055 M252.250 297.013 C 252.113 297.372,252.000 300.081,252.000 303.033 L 252.000 308.400 249.400 308.400 L 246.800 308.400 246.800 310.000 L 246.800 311.600 251.609 311.600 L 256.418 311.600 256.309 304.100 L 256.200 296.600 254.350 296.480 C 252.934 296.388,252.442 296.513,252.250 297.013 M277.600 304.719 C 277.600 315.111,277.342 315.800,273.447 315.800 C 271.215 315.800,270.000 316.469,270.000 317.697 C 270.000 319.176,276.580 319.697,278.727 318.388 C 281.295 316.822,281.631 315.246,281.508 305.325 L 281.400 296.600 279.500 296.478 L 277.600 296.356 277.600 304.719 M318.715 299.939 C 319.093 300.179,319.200 301.329,319.115 304.233 L 319.000 308.200 317.857 308.331 C 313.942 308.778,311.642 304.313,314.214 301.257 C 315.406 299.839,317.563 299.208,318.715 299.939 " stroke="none" fill="#33a64d" fill-rule="evenodd"></path><path id="path2" d="M0.000 200.000 L 0.000 400.000 200.000 400.000 L 400.000 400.000 400.000 200.000 L 400.000 0.000 200.000 0.000 L 0.000 0.000 0.000 200.000 M144.663 46.621 C 147.236 48.584,147.200 48.308,147.200 65.980 C 147.200 79.822,147.280 82.000,147.789 82.000 C 148.481 82.000,153.502 78.257,169.639 65.716 C 177.684 59.463,181.317 59.029,185.534 63.820 C 187.840 66.439,187.910 66.879,188.131 80.132 C 188.240 86.694,188.414 92.147,188.516 92.249 C 188.678 92.411,210.260 87.133,213.997 86.017 C 218.258 84.745,222.164 85.757,225.464 88.988 C 228.966 92.415,229.200 93.397,229.200 104.655 L 229.200 113.565 244.900 113.683 L 260.600 113.800 262.800 114.881 C 266.381 116.639,268.889 119.701,269.941 123.600 C 270.315 124.983,270.401 138.848,270.314 183.400 L 270.200 241.400 269.282 243.318 C 268.112 245.762,265.806 248.068,263.114 249.486 L 261.000 250.600 245.152 250.717 L 229.304 250.834 229.052 252.673 C 228.913 253.684,228.800 259.624,228.800 265.872 C 228.800 278.405,228.662 279.192,226.111 281.199 C 221.748 284.631,216.169 283.719,212.152 278.916 C 211.087 277.642,208.848 275.070,207.176 273.200 C 205.504 271.330,202.363 267.730,200.196 265.200 C 198.028 262.670,195.433 259.698,194.428 258.596 C 193.422 257.493,191.454 255.289,190.054 253.697 L 187.509 250.804 146.861 250.702 L 106.214 250.600 105.930 249.000 C 105.774 248.120,105.636 217.891,105.623 181.825 L 105.600 116.251 107.363 112.425 C 108.332 110.321,110.062 106.440,111.206 103.800 C 114.737 95.654,120.442 82.772,122.101 79.200 C 122.969 77.330,124.185 74.540,124.803 73.000 C 125.746 70.651,127.768 66.071,132.399 55.800 C 132.796 54.920,133.589 53.042,134.162 51.628 C 136.536 45.761,140.843 43.707,144.663 46.621 M320.526 279.665 C 323.357 281.173,322.693 284.618,319.232 286.384 C 316.267 287.896,312.178 287.134,312.693 285.166 C 312.888 284.421,313.108 284.355,314.652 284.587 L 316.391 284.848 316.184 283.124 C 315.955 281.214,316.458 280.267,318.036 279.636 C 319.324 279.121,319.509 279.123,320.526 279.665 M318.471 282.621 C 318.652 283.490,319.361 283.543,319.524 282.700 C 319.608 282.262,319.412 282.000,319.000 282.000 C 318.616 282.000,318.395 282.259,318.471 282.621 M242.557 287.833 C 242.691 288.181,242.800 292.767,242.800 298.025 L 242.800 307.585 243.700 307.754 C 244.195 307.847,246.130 307.896,248.000 307.862 L 251.400 307.800 251.600 302.000 L 251.800 296.200 254.300 296.081 L 256.800 295.962 256.800 303.934 C 256.800 311.864,256.795 311.908,255.900 312.148 C 254.521 312.518,226.436 312.411,224.457 312.028 C 220.879 311.337,218.978 308.679,219.301 304.817 C 219.627 300.924,220.017 300.400,222.590 300.400 L 224.800 300.400 224.800 303.324 C 224.800 307.769,224.808 307.774,231.567 307.930 L 237.200 308.060 237.205 298.530 C 237.212 286.613,237.067 287.200,240.004 287.200 C 241.742 287.200,242.375 287.357,242.557 287.833 M267.357 287.833 C 267.976 289.445,267.616 311.908,266.967 312.157 C 266.166 312.465,264.466 312.460,263.300 312.148 L 262.400 311.907 262.400 299.820 C 262.400 293.172,262.520 287.613,262.667 287.467 C 263.250 286.883,267.108 287.184,267.357 287.833 M79.400 289.384 C 86.499 292.313,87.875 304.833,81.695 310.258 L 80.261 311.516 82.529 314.058 C 85.536 317.429,85.495 317.601,81.700 317.597 L 78.600 317.593 76.730 315.248 C 74.930 312.990,74.759 312.883,72.198 312.400 C 60.311 310.157,59.791 290.869,71.561 288.792 C 73.774 288.401,77.746 288.701,79.400 289.384 M105.600 289.779 C 112.639 293.209,113.116 307.015,106.331 310.928 C 96.199 316.772,85.956 307.655,89.399 295.855 C 91.238 289.552,99.091 286.607,105.600 289.779 M316.018 289.134 C 317.725 290.516,316.941 293.600,314.883 293.600 C 311.624 293.600,311.599 288.834,314.856 288.432 C 314.996 288.414,315.520 288.731,316.018 289.134 M321.900 289.311 C 322.615 289.864,322.517 292.007,321.738 292.869 C 320.935 293.756,319.474 293.817,318.655 292.998 C 316.250 290.593,319.210 287.230,321.900 289.311 M127.346 289.641 C 136.559 292.666,137.518 306.361,128.830 310.841 C 126.848 311.863,119.293 312.732,116.667 312.239 L 115.200 311.964 115.200 300.649 C 115.200 294.425,115.320 289.213,115.467 289.067 C 116.146 288.387,124.800 288.805,127.346 289.641 M151.674 289.924 C 156.044 292.075,156.554 299.072,152.500 301.251 C 151.235 301.931,151.285 302.083,154.300 306.674 C 157.189 311.072,157.541 311.294,158.269 309.169 C 158.528 308.416,159.665 305.190,160.798 302.000 C 161.930 298.810,163.111 295.480,163.421 294.600 C 163.731 293.720,164.312 292.100,164.710 291.000 L 165.435 289.000 168.495 288.884 C 171.106 288.784,171.611 288.873,171.940 289.488 C 172.298 290.157,173.625 293.678,174.394 296.000 C 174.576 296.550,175.654 299.610,176.790 302.800 C 179.957 311.697,179.977 311.757,179.782 311.952 C 179.681 312.052,178.654 312.208,177.500 312.299 C 174.875 312.505,174.269 312.057,173.296 309.200 L 172.547 307.000 168.606 307.000 L 164.665 307.000 163.883 309.479 C 162.955 312.427,163.024 312.400,156.475 312.262 C 153.029 312.189,151.860 312.027,151.574 311.583 C 151.367 311.262,150.184 309.335,148.944 307.300 C 146.946 304.020,146.561 303.600,145.545 303.600 L 144.400 303.600 144.400 307.757 C 144.400 312.550,143.818 313.144,140.100 312.148 L 139.200 311.907 139.200 300.314 L 139.200 288.722 144.500 288.862 C 149.050 288.982,150.065 289.132,151.674 289.924 M195.357 289.433 C 195.669 290.246,195.669 292.154,195.357 292.967 C 195.168 293.460,194.502 293.600,192.357 293.600 L 189.600 293.600 189.600 302.586 C 189.600 312.527,189.633 312.408,186.926 312.395 C 183.844 312.380,184.027 312.958,183.907 302.855 L 183.800 293.800 181.215 293.679 C 177.781 293.518,176.766 292.240,177.843 289.433 C 178.209 288.477,194.991 288.477,195.357 289.433 M203.913 293.500 C 204.049 298.902,203.891 298.871,207.532 294.224 C 211.956 288.578,211.674 288.800,214.416 288.800 C 217.873 288.800,217.876 288.791,211.872 296.312 L 209.546 299.224 210.724 301.112 C 211.372 302.151,213.093 304.890,214.549 307.200 C 217.784 312.335,217.802 312.000,214.300 311.999 L 211.400 311.998 208.829 307.759 C 205.038 301.508,204.000 301.575,204.000 308.067 L 204.000 312.037 201.300 311.918 L 198.600 311.800 198.603 301.000 C 198.607 288.156,198.471 288.722,201.495 288.880 L 203.800 289.000 203.913 293.500 M253.120 289.280 C 255.165 291.325,252.071 294.874,249.931 292.938 C 248.286 291.449,249.226 288.800,251.400 288.800 C 252.082 288.800,252.856 289.016,253.120 289.280 M258.720 289.280 C 260.019 290.579,258.773 293.600,256.938 293.600 C 254.998 293.600,253.984 291.751,254.864 289.819 C 255.379 288.689,257.792 288.352,258.720 289.280 M71.553 293.778 C 67.970 295.804,67.980 304.672,71.568 307.090 C 76.542 310.442,81.475 304.479,79.460 297.548 C 78.372 293.804,74.647 292.029,71.553 293.778 M97.153 293.778 C 93.570 295.804,93.580 304.672,97.168 307.090 C 102.142 310.442,107.075 304.479,105.060 297.548 C 103.972 293.804,100.247 292.029,97.153 293.778 M120.800 300.600 L 120.800 307.600 122.640 307.600 C 126.257 307.600,128.452 305.718,128.985 302.159 C 129.763 296.970,127.504 293.600,123.247 293.600 L 120.800 293.600 120.800 300.600 M144.400 296.192 C 144.400 299.214,145.122 299.745,147.746 298.648 C 151.402 297.121,150.301 293.600,146.167 293.600 L 144.400 293.600 144.400 296.192 M294.132 294.974 C 295.894 296.144,298.209 298.687,299.399 300.760 C 299.576 301.067,300.220 302.777,300.830 304.560 L 301.940 307.800 305.570 307.915 C 307.566 307.978,309.198 307.978,309.196 307.915 C 309.193 307.852,308.921 306.909,308.591 305.820 C 306.760 299.786,311.231 295.829,319.600 296.076 L 323.800 296.200 323.908 304.051 L 324.017 311.902 323.108 312.146 C 321.916 312.465,287.674 312.462,286.480 312.143 C 285.664 311.924,285.574 311.688,285.680 310.048 L 285.800 308.200 290.868 308.000 C 296.773 307.767,296.495 307.904,295.714 305.602 C 294.808 302.934,293.001 300.552,290.987 299.371 C 288.965 298.186,288.943 298.107,289.877 295.500 C 290.712 293.170,291.307 293.097,294.132 294.974 M167.429 297.818 C 166.099 302.084,166.191 302.400,168.764 302.400 C 171.327 302.400,171.340 302.361,170.118 298.376 C 168.729 293.846,168.671 293.834,167.429 297.818 M233.767 295.043 C 235.380 295.662,234.227 297.396,232.200 297.398 C 229.884 297.401,230.321 299.127,232.675 299.277 C 234.429 299.389,234.600 299.489,234.600 300.400 C 234.600 301.401,229.631 302.787,228.100 302.213 C 227.530 301.999,227.422 300.557,227.952 300.230 C 228.145 300.110,228.215 299.229,228.107 298.271 C 227.804 295.588,230.775 293.894,233.767 295.043 M282.310 304.200 C 282.461 315.164,281.706 317.909,278.127 319.405 C 275.044 320.693,269.200 319.355,269.532 317.437 C 269.892 315.357,270.738 314.806,273.181 315.061 C 276.763 315.436,276.800 315.329,276.800 304.693 L 276.800 295.963 279.500 296.082 L 282.200 296.200 282.310 304.200 M314.769 301.569 C 312.796 303.543,313.543 306.723,316.185 307.595 C 318.210 308.263,318.400 307.953,318.400 303.976 L 318.400 300.400 317.169 300.400 C 316.342 300.400,315.555 300.784,314.769 301.569 " stroke="none" fill="#fbfbfb" fill-rule="evenodd"></path><path id="path3" d="M137.722 46.382 C 136.164 47.332,135.510 48.295,134.162 51.628 C 133.589 53.042,132.796 54.920,132.399 55.800 C 127.768 66.071,125.746 70.651,124.803 73.000 C 124.185 74.540,122.969 77.330,122.101 79.200 C 120.442 82.772,114.737 95.654,111.206 103.800 C 110.062 106.440,108.332 110.321,107.363 112.425 L 105.600 116.251 105.623 181.825 C 105.636 217.891,105.774 248.120,105.930 249.000 L 106.214 250.600 146.787 250.702 L 187.360 250.804 188.580 251.902 L 189.800 253.000 188.625 251.700 L 187.450 250.400 147.625 250.394 C 124.406 250.390,107.560 250.236,107.225 250.024 C 106.745 249.720,106.823 249.405,107.690 248.130 C 108.262 247.288,109.019 245.731,109.371 244.669 C 109.723 243.607,111.431 239.737,113.166 236.069 C 114.901 232.401,116.990 227.690,117.807 225.600 C 118.625 223.510,120.367 219.460,121.679 216.600 C 124.787 209.825,124.992 209.362,125.939 207.000 C 126.380 205.900,127.946 202.300,129.419 199.000 C 130.892 195.700,133.215 190.390,134.581 187.200 C 138.266 178.594,139.477 175.877,141.891 170.800 C 143.094 168.270,144.825 164.040,145.739 161.400 L 147.400 156.600 147.474 120.009 C 147.514 99.884,147.694 83.367,147.874 83.304 C 148.053 83.242,150.852 81.168,154.094 78.695 C 157.335 76.223,162.105 72.594,164.694 70.632 C 167.282 68.669,170.570 66.127,172.000 64.983 C 178.139 60.070,183.380 60.491,186.187 66.124 L 187.200 68.157 187.200 80.230 C 187.200 94.146,187.017 93.487,190.630 92.601 C 191.934 92.282,195.610 91.384,198.800 90.606 C 201.990 89.828,205.950 88.819,207.600 88.363 C 218.168 85.442,221.264 85.577,224.934 89.120 C 228.076 92.152,228.175 92.575,228.400 103.800 L 228.600 113.800 244.200 113.807 L 259.800 113.815 244.500 113.703 L 229.200 113.590 229.200 104.668 C 229.200 93.395,228.967 92.416,225.464 88.988 C 222.164 85.757,218.258 84.745,213.997 86.017 C 210.260 87.133,188.678 92.411,188.516 92.249 C 188.414 92.147,188.240 86.694,188.131 80.132 C 187.910 66.879,187.840 66.439,185.534 63.820 C 181.317 59.029,177.684 59.463,169.639 65.716 C 153.502 78.257,148.481 82.000,147.789 82.000 C 147.280 82.000,147.200 79.822,147.200 65.980 C 147.200 48.308,147.236 48.584,144.663 46.621 C 142.947 45.312,139.662 45.200,137.722 46.382 M261.633 114.549 C 262.045 114.917,264.400 116.000,264.400 115.821 C 264.400 115.590,262.182 114.400,261.753 114.400 C 261.596 114.400,261.542 114.467,261.633 114.549 M266.200 117.600 C 267.059 118.480,267.852 119.200,267.962 119.200 C 268.072 119.200,267.459 118.480,266.600 117.600 C 265.741 116.720,264.948 116.000,264.838 116.000 C 264.728 116.000,265.341 116.720,266.200 117.600 M228.956 250.971 C 228.835 251.285,228.816 251.960,228.914 252.471 C 229.049 253.181,229.104 253.094,229.146 252.105 L 229.200 250.809 244.700 250.700 L 260.200 250.590 244.687 250.495 C 231.557 250.415,229.141 250.488,228.956 250.971 M194.383 258.500 C 196.041 260.266,196.400 260.584,196.400 260.283 C 196.400 260.219,195.545 259.364,194.500 258.383 L 192.600 256.600 194.383 258.500 M196.400 260.925 C 196.400 260.994,196.985 261.579,197.700 262.225 L 199.000 263.400 197.825 262.100 C 196.730 260.888,196.400 260.616,196.400 260.925 M198.800 263.725 C 198.800 263.794,199.385 264.379,200.100 265.025 L 201.400 266.200 200.225 264.900 C 199.130 263.688,198.800 263.416,198.800 263.725 M205.183 270.900 C 206.841 272.666,207.200 272.984,207.200 272.683 C 207.200 272.619,206.345 271.764,205.300 270.783 L 203.400 269.000 205.183 270.900 M207.200 273.325 C 207.200 273.394,207.785 273.979,208.500 274.625 L 209.800 275.800 208.625 274.500 C 207.530 273.288,207.200 273.016,207.200 273.325 M213.200 280.200 C 213.946 280.970,214.647 281.600,214.757 281.600 C 214.867 281.600,214.346 280.970,213.600 280.200 C 212.854 279.430,212.153 278.800,212.043 278.800 C 211.933 278.800,212.454 279.430,213.200 280.200 M226.626 280.300 C 225.762 281.405,225.693 281.590,226.363 281.004 C 227.165 280.304,228.223 278.800,227.914 278.800 C 227.851 278.800,227.272 279.475,226.626 280.300 M319.158 281.966 C 319.505 282.185,319.610 282.600,319.435 283.060 C 319.217 283.631,319.261 283.692,319.629 283.327 C 320.195 282.766,319.844 281.597,319.113 281.606 C 318.729 281.611,318.741 281.701,319.158 281.966 M222.000 282.800 C 221.176 283.064,221.141 283.126,221.800 283.154 C 222.240 283.173,222.870 283.013,223.200 282.800 C 223.901 282.347,223.414 282.347,222.000 282.800 M237.452 288.100 C 237.319 288.595,237.208 293.289,237.205 298.530 L 237.200 308.060 231.567 307.930 C 224.808 307.774,224.800 307.769,224.800 303.324 L 224.800 300.400 222.590 300.400 C 220.017 300.400,219.627 300.924,219.301 304.817 C 218.713 311.848,220.705 312.507,242.000 312.321 L 255.800 312.200 240.200 311.866 C 222.661 311.490,221.942 311.371,220.637 308.622 C 219.378 305.969,220.059 301.192,221.742 300.868 C 223.786 300.474,224.208 301.001,224.067 303.766 C 223.844 308.100,224.448 308.450,231.893 308.311 L 237.800 308.200 237.829 298.200 L 237.858 288.200 240.122 288.080 L 242.386 287.960 242.493 298.080 L 242.600 308.200 244.500 308.322 C 245.748 308.402,246.400 308.284,246.400 307.979 C 246.400 307.678,246.034 307.605,245.366 307.773 C 242.771 308.424,242.800 308.535,242.800 298.006 C 242.800 292.759,242.691 288.181,242.557 287.833 C 242.130 286.719,237.761 286.947,237.452 288.100 M262.662 287.500 C 262.560 287.665,263.314 287.746,264.338 287.680 C 267.259 287.493,267.614 287.297,265.124 287.246 C 263.872 287.221,262.764 287.335,262.662 287.500 M73.700 288.676 C 74.085 288.776,74.715 288.776,75.100 288.676 C 75.485 288.575,75.170 288.493,74.400 288.493 C 73.630 288.493,73.315 288.575,73.700 288.676 M198.898 289.480 C 198.737 289.876,198.605 295.060,198.603 301.000 L 198.600 311.800 201.300 311.918 L 204.000 312.037 204.000 308.067 C 204.000 301.575,205.038 301.508,208.829 307.759 L 211.400 311.998 214.300 311.999 C 217.802 312.000,217.784 312.335,214.549 307.200 C 213.093 304.890,211.372 302.151,210.724 301.112 L 209.546 299.224 211.872 296.312 C 217.876 288.791,217.873 288.800,214.416 288.800 C 211.674 288.800,211.956 288.578,207.532 294.224 C 203.891 298.871,204.049 298.902,203.913 293.500 L 203.800 289.000 201.495 288.880 C 199.581 288.780,199.141 288.882,198.898 289.480 M177.660 291.051 C 177.627 291.959,177.825 292.887,178.100 293.114 C 178.652 293.569,184.134 293.968,183.682 293.521 C 183.527 293.368,182.230 293.188,180.800 293.121 L 178.200 293.000 177.960 291.200 L 177.720 289.400 177.660 291.051 M215.026 291.031 C 214.675 291.382,213.902 292.329,213.307 293.135 C 212.713 293.941,211.628 295.285,210.895 296.121 C 208.388 298.985,208.390 299.164,210.937 302.992 C 212.182 304.862,213.200 306.494,213.200 306.618 C 213.200 306.742,213.927 307.914,214.815 309.222 L 216.430 311.600 214.253 311.600 L 212.076 311.600 210.738 309.317 C 205.906 301.070,206.129 301.284,203.962 302.827 C 202.813 303.645,202.800 303.699,202.800 307.627 L 202.800 311.600 201.200 311.600 L 199.600 311.600 199.600 300.800 L 199.600 290.000 201.200 290.000 L 202.800 290.000 202.806 294.500 C 202.815 301.303,203.222 301.364,207.856 295.257 C 209.585 292.979,211.191 290.876,211.425 290.584 C 211.881 290.013,215.313 289.606,215.532 290.096 C 215.605 290.259,215.377 290.680,215.026 291.031 M73.700 293.076 C 74.085 293.176,74.715 293.176,75.100 293.076 C 75.485 292.975,75.170 292.893,74.400 292.893 C 73.630 292.893,73.315 292.975,73.700 293.076 M99.300 293.076 C 99.685 293.176,100.315 293.176,100.700 293.076 C 101.085 292.975,100.770 292.893,100.000 292.893 C 99.230 292.893,98.915 292.975,99.300 293.076 M121.500 293.482 C 121.995 293.578,122.805 293.578,123.300 293.482 C 123.795 293.387,123.390 293.309,122.400 293.309 C 121.410 293.309,121.005 293.387,121.500 293.482 M191.091 293.489 C 191.801 293.577,193.061 293.579,193.891 293.492 C 194.721 293.405,194.140 293.333,192.600 293.331 C 191.060 293.329,190.381 293.400,191.091 293.489 M120.586 301.000 L 120.600 307.800 122.103 307.842 L 123.607 307.884 122.213 307.718 L 120.819 307.553 120.695 300.876 L 120.572 294.200 120.586 301.000 M189.371 302.800 C 189.371 307.750,189.428 309.775,189.499 307.300 C 189.569 304.825,189.569 300.775,189.499 298.300 C 189.428 295.825,189.371 297.850,189.371 302.800 M229.009 295.664 C 228.038 296.429,227.933 296.730,228.107 298.271 C 228.215 299.229,228.145 300.110,227.952 300.230 C 227.422 300.557,227.530 301.999,228.100 302.213 C 229.631 302.787,234.600 301.401,234.600 300.400 C 234.600 299.489,234.429 299.389,232.675 299.277 C 230.321 299.127,229.884 297.401,232.200 297.398 C 233.705 297.397,234.400 296.961,234.400 296.019 C 234.400 294.535,230.751 294.294,229.009 295.664 M233.521 296.074 C 233.620 296.595,233.302 296.777,232.124 296.874 C 229.695 297.075,229.764 299.782,232.200 299.835 C 233.746 299.869,234.000 299.998,234.000 300.753 C 234.000 301.150,228.864 301.797,228.512 301.445 C 228.387 301.321,228.514 300.945,228.792 300.610 C 229.191 300.128,229.196 299.757,228.815 298.837 C 227.965 296.783,229.458 295.124,231.997 295.302 C 232.938 295.368,233.435 295.620,233.521 296.074 M282.170 304.800 C 282.170 309.530,282.228 311.465,282.298 309.100 C 282.369 306.735,282.369 302.865,282.298 300.500 C 282.228 298.135,282.170 300.070,282.170 304.800 M323.768 304.200 C 323.768 308.600,323.826 310.455,323.898 308.321 C 323.970 306.188,323.970 302.588,323.899 300.321 C 323.827 298.055,323.768 299.800,323.768 304.200 M134.509 300.400 C 134.509 301.390,134.587 301.795,134.682 301.300 C 134.778 300.805,134.778 299.995,134.682 299.500 C 134.587 299.005,134.509 299.410,134.509 300.400 M285.714 310.200 C 285.717 311.300,285.795 311.703,285.887 311.095 C 285.979 310.486,285.977 309.586,285.882 309.095 C 285.787 308.603,285.711 309.100,285.714 310.200 M117.700 312.291 C 118.525 312.378,119.875 312.378,120.700 312.291 C 121.525 312.205,120.850 312.134,119.200 312.134 C 117.550 312.134,116.875 312.205,117.700 312.291 M141.100 312.282 C 141.595 312.378,142.405 312.378,142.900 312.282 C 143.395 312.187,142.990 312.109,142.000 312.109 C 141.010 312.109,140.605 312.187,141.100 312.282 M153.900 312.282 C 154.395 312.378,155.205 312.378,155.700 312.282 C 156.195 312.187,155.790 312.109,154.800 312.109 C 153.810 312.109,153.405 312.187,153.900 312.282 M159.500 312.282 C 159.995 312.378,160.805 312.378,161.300 312.282 C 161.795 312.187,161.390 312.109,160.400 312.109 C 159.410 312.109,159.005 312.187,159.500 312.282 M176.105 312.287 C 176.714 312.379,177.614 312.377,178.105 312.282 C 178.597 312.187,178.100 312.111,177.000 312.114 C 175.900 312.117,175.497 312.195,176.105 312.287 M185.900 312.282 C 186.395 312.378,187.205 312.378,187.700 312.282 C 188.195 312.187,187.790 312.109,186.800 312.109 C 185.810 312.109,185.405 312.187,185.900 312.282 M264.300 312.282 C 264.795 312.378,265.605 312.378,266.100 312.282 C 266.595 312.187,266.190 312.109,265.200 312.109 C 264.210 312.109,263.805 312.187,264.300 312.282 M295.700 312.300 C 300.705 312.363,308.895 312.363,313.900 312.300 C 318.905 312.236,314.810 312.184,304.800 312.184 C 294.790 312.184,290.695 312.236,295.700 312.300 M99.300 312.676 C 99.685 312.776,100.315 312.776,100.700 312.676 C 101.085 312.575,100.770 312.493,100.000 312.493 C 99.230 312.493,98.915 312.575,99.300 312.676 " stroke="none" fill="#f8f99c" fill-rule="evenodd"></path><path id="path4" d="M228.800 114.283 C 228.800 114.457,235.685 114.600,244.100 114.600 C 258.131 114.600,259.582 114.663,261.598 115.365 C 264.519 116.381,267.606 119.500,268.769 122.610 L 269.610 124.858 269.505 183.129 L 269.400 241.400 268.533 243.000 C 265.115 249.309,263.385 249.800,244.600 249.800 C 236.020 249.800,228.775 249.946,228.500 250.124 C 228.117 250.372,228.000 253.496,228.000 263.497 C 228.000 280.122,227.402 281.695,220.861 282.288 C 216.381 282.694,215.895 282.269,201.400 265.239 C 194.290 256.886,187.902 250.001,187.243 249.978 C 183.270 249.845,108.209 250.058,108.064 250.203 C 107.955 250.311,125.785 250.400,147.684 250.400 L 187.502 250.400 189.845 253.100 C 191.133 254.585,193.023 256.700,194.043 257.800 C 195.064 258.900,197.665 261.870,199.823 264.400 C 201.980 266.930,204.568 269.900,205.574 271.000 C 206.580 272.100,208.392 274.160,209.601 275.578 C 210.811 276.996,212.492 278.924,213.337 279.863 C 217.576 284.570,225.192 283.858,227.852 278.505 C 228.523 277.155,228.621 275.643,228.800 263.800 L 229.000 250.600 245.000 250.400 L 261.000 250.200 263.273 249.084 C 265.947 247.771,267.724 245.880,269.160 242.818 L 270.200 240.600 270.315 184.200 C 270.449 118.744,270.642 121.824,266.135 117.542 C 262.549 114.136,263.030 114.215,244.900 114.083 C 236.045 114.019,228.800 114.109,228.800 114.283 M316.940 280.624 C 315.961 281.602,315.913 281.934,316.445 284.000 C 316.566 284.467,316.202 284.600,314.800 284.600 C 312.603 284.600,311.991 285.903,313.801 286.727 C 316.587 287.997,320.913 286.260,321.985 283.440 C 323.157 280.358,319.338 278.226,316.940 280.624 M320.869 280.662 C 323.916 283.420,317.258 288.321,313.603 286.011 C 312.490 285.306,313.684 284.750,315.135 285.298 C 316.765 285.913,317.202 285.380,316.901 283.140 C 316.547 280.496,318.995 278.967,320.869 280.662 M318.267 281.467 C 317.900 281.833,317.942 283.290,318.338 283.914 C 319.084 285.089,320.650 283.417,320.182 281.944 C 319.952 281.219,318.801 280.932,318.267 281.467 M319.800 282.628 C 319.800 283.047,319.485 283.450,319.100 283.524 C 318.396 283.659,318.087 282.447,318.675 281.858 C 319.148 281.386,319.800 281.832,319.800 282.628 M262.684 287.849 C 262.528 288.005,262.400 293.512,262.400 300.086 L 262.400 312.038 264.900 311.919 L 267.400 311.800 267.400 299.800 L 267.400 287.800 265.184 287.683 C 263.965 287.618,262.840 287.693,262.684 287.849 M267.106 299.900 L 267.212 311.600 265.006 311.600 L 262.800 311.600 262.800 300.067 C 262.800 287.283,262.674 287.918,265.185 288.082 L 267.000 288.200 267.106 299.900 M69.800 289.283 C 59.739 292.799,61.665 311.013,72.229 312.255 C 74.723 312.548,74.534 312.427,76.958 315.300 L 78.897 317.600 81.849 317.600 C 85.655 317.600,85.649 317.571,80.900 312.479 C 80.174 311.701,80.249 311.502,81.835 309.978 C 87.647 304.396,86.343 292.693,79.566 289.619 C 77.584 288.720,71.964 288.526,69.800 289.283 M95.400 289.283 C 87.020 292.212,86.605 307.575,94.800 311.525 C 96.589 312.387,102.764 312.456,104.800 311.636 C 112.983 308.341,113.234 293.279,105.166 289.619 C 103.184 288.720,97.564 288.526,95.400 289.283 M115.680 289.280 C 115.330 289.630,115.200 292.764,115.200 300.880 L 115.200 312.000 120.385 312.000 C 130.479 312.000,134.400 308.759,134.400 300.416 C 134.400 294.208,131.952 290.873,126.290 289.366 C 123.666 288.667,116.352 288.608,115.680 289.280 M139.467 289.067 C 139.320 289.213,139.200 294.442,139.200 300.686 L 139.200 312.038 141.700 311.919 L 144.200 311.800 144.400 307.600 C 144.715 300.977,145.205 301.179,150.942 310.300 L 152.011 312.000 157.506 311.998 L 163.000 311.997 163.800 309.498 L 164.600 307.000 168.615 306.887 L 172.630 306.774 173.143 308.287 C 174.484 312.241,174.231 312.000,177.049 312.000 C 178.452 312.000,179.600 311.864,179.600 311.697 C 179.600 311.223,178.992 309.367,177.211 304.400 C 176.303 301.870,175.124 298.540,174.591 297.000 C 174.058 295.460,173.196 293.030,172.675 291.600 L 171.727 289.000 168.717 288.884 L 165.706 288.768 164.883 290.884 C 163.971 293.231,162.645 296.971,160.588 303.000 C 157.318 312.583,157.942 312.241,154.080 306.570 L 151.160 302.283 152.588 301.105 C 157.406 297.134,155.588 290.650,149.269 289.267 C 146.991 288.768,139.910 288.623,139.467 289.067 M178.161 289.358 C 178.043 289.665,178.004 290.610,178.073 291.458 L 178.200 293.000 181.000 293.200 L 183.800 293.400 183.907 302.700 L 184.015 312.000 186.607 312.000 L 189.200 312.000 189.200 303.080 C 189.200 292.839,189.074 293.200,192.653 293.200 C 195.470 293.200,195.901 292.727,195.420 290.165 L 195.164 288.800 186.769 288.800 C 179.958 288.800,178.335 288.905,178.161 289.358 M249.520 289.816 C 248.463 292.135,251.007 294.622,252.788 293.011 C 253.695 292.190,253.886 290.046,253.120 289.280 C 252.209 288.369,250.032 288.693,249.520 289.816 M255.298 289.300 C 253.762 291.220,255.301 294.141,257.451 293.385 C 259.954 292.505,259.574 288.800,256.981 288.800 C 256.275 288.800,255.518 289.025,255.298 289.300 M312.972 289.787 C 311.563 291.937,314.136 294.687,315.988 293.011 C 316.895 292.190,317.086 290.046,316.320 289.280 C 315.477 288.437,313.677 288.710,312.972 289.787 M318.414 289.574 C 317.033 292.153,319.234 294.572,321.511 292.977 C 322.502 292.283,322.743 290.103,321.920 289.280 C 321.138 288.498,318.889 288.687,318.414 289.574 M79.877 290.327 C 85.888 293.430,86.609 308.356,80.836 310.189 C 79.303 310.675,79.531 311.633,81.794 314.210 C 84.506 317.299,84.511 317.200,81.634 317.200 L 79.268 317.200 76.985 314.600 C 75.069 312.417,74.497 312.000,73.422 312.000 C 62.597 312.000,59.940 293.087,70.291 289.708 C 72.624 288.946,77.856 289.284,79.877 290.327 M105.477 290.327 C 112.976 294.197,111.839 309.035,103.862 311.404 C 99.552 312.684,95.011 311.811,92.400 309.200 C 88.273 305.073,88.588 294.851,92.950 291.350 C 95.855 289.019,101.973 288.519,105.477 290.327 M171.096 289.527 C 171.369 289.701,172.692 292.983,174.036 296.821 C 177.281 306.089,178.680 310.048,179.021 310.921 C 179.275 311.574,179.079 311.631,176.961 311.521 L 174.620 311.400 173.875 308.900 L 173.131 306.400 168.610 306.400 L 164.089 306.400 163.385 309.000 L 162.681 311.600 160.371 311.600 L 158.061 311.600 159.672 307.100 C 160.558 304.625,161.964 300.620,162.795 298.200 C 163.627 295.780,164.701 292.765,165.182 291.500 L 166.057 289.200 168.329 289.206 C 169.578 289.209,170.823 289.354,171.096 289.527 M252.720 289.680 C 252.984 289.944,253.200 290.538,253.200 291.000 C 253.200 292.886,250.718 293.536,249.950 291.851 C 249.094 289.971,251.290 288.250,252.720 289.680 M258.361 290.100 C 258.925 291.615,258.292 292.600,256.754 292.600 C 255.567 292.600,255.384 292.461,255.271 291.476 C 255.025 289.327,257.639 288.162,258.361 290.100 M315.920 289.680 C 316.184 289.944,316.400 290.538,316.400 291.000 C 316.400 292.886,313.918 293.536,313.150 291.851 C 312.294 289.971,314.490 288.250,315.920 289.680 M321.627 290.051 C 322.270 291.251,321.516 292.800,320.289 292.800 C 319.134 292.800,318.400 292.100,318.400 291.000 C 318.400 289.187,320.789 288.484,321.627 290.051 M128.627 290.681 C 132.610 292.788,134.201 296.022,133.919 301.437 C 133.542 308.675,129.530 311.600,119.980 311.600 L 116.000 311.600 116.000 300.562 L 116.000 289.523 121.500 289.672 C 126.177 289.798,127.244 289.950,128.627 290.681 M150.473 290.069 C 155.132 291.465,156.147 297.534,152.241 300.650 C 150.379 302.136,150.346 301.980,153.516 306.622 C 155.010 308.810,156.370 310.825,156.539 311.100 C 156.772 311.479,156.283 311.596,154.524 311.583 L 152.200 311.567 149.656 307.396 C 147.122 303.242,146.321 302.517,144.800 303.000 C 144.067 303.233,144.000 303.605,144.000 307.427 L 144.000 311.600 141.800 311.600 L 139.600 311.600 139.600 300.600 L 139.600 289.600 144.254 289.600 C 146.813 289.600,149.612 289.811,150.473 290.069 M195.000 291.200 L 195.000 292.600 192.000 292.800 L 189.000 293.000 188.893 302.300 L 188.785 311.600 186.793 311.600 L 184.800 311.600 184.800 302.876 C 184.800 292.598,184.899 292.877,181.200 292.714 C 178.824 292.610,178.589 292.520,178.468 291.671 C 178.171 289.572,178.157 289.575,186.891 289.692 L 195.000 289.800 195.000 291.200 M72.515 292.680 C 68.177 293.520,66.725 303.479,70.424 307.023 C 72.329 308.848,76.740 308.789,78.413 306.916 C 82.029 302.869,80.371 292.705,76.114 292.819 C 75.676 292.831,75.942 293.102,76.800 293.519 C 80.754 295.442,81.017 305.426,77.166 307.418 C 72.714 309.720,68.800 306.479,68.800 300.489 C 68.800 295.954,70.385 293.688,74.200 292.771 C 75.591 292.436,74.169 292.360,72.515 292.680 M98.115 292.680 C 93.777 293.520,92.325 303.479,96.024 307.023 C 97.929 308.848,102.340 308.789,104.013 306.916 C 107.629 302.869,105.971 292.705,101.714 292.819 C 101.276 292.831,101.542 293.102,102.400 293.519 C 106.354 295.442,106.617 305.426,102.766 307.418 C 98.314 309.720,94.400 306.479,94.400 300.489 C 94.400 295.954,95.985 293.688,99.800 292.771 C 101.191 292.436,99.769 292.360,98.115 292.680 M120.267 293.067 C 119.476 293.857,119.994 307.944,120.823 308.207 C 126.853 310.121,131.988 302.250,128.795 295.989 C 127.551 293.551,121.765 291.568,120.267 293.067 M144.084 296.100 C 144.213 299.776,144.425 299.985,147.454 299.416 C 152.398 298.489,151.049 292.806,145.884 292.801 L 143.968 292.800 144.084 296.100 M126.578 294.222 C 129.431 296.092,130.111 302.551,127.761 305.456 C 126.428 307.104,123.979 308.112,121.800 307.911 L 120.600 307.800 120.486 301.400 C 120.332 292.789,120.250 293.029,123.227 293.340 C 124.538 293.477,126.046 293.874,126.578 294.222 M149.300 294.467 C 151.129 296.614,149.228 299.200,145.820 299.200 L 144.400 299.200 144.400 296.467 C 144.400 294.963,144.534 293.599,144.697 293.436 C 145.257 292.877,148.580 293.621,149.300 294.467 M167.009 296.900 C 165.301 302.625,165.290 302.580,168.400 302.703 C 172.172 302.853,172.185 302.827,170.686 298.185 C 168.663 291.921,168.511 291.868,167.009 296.900 M290.194 295.077 C 289.073 297.758,289.065 298.210,290.126 298.694 C 292.787 299.906,295.485 303.472,296.182 306.700 L 296.464 308.000 291.232 308.000 L 286.000 308.000 286.000 310.000 L 286.000 312.000 304.800 312.000 L 323.600 312.000 323.600 303.967 L 323.600 295.933 318.900 296.067 C 310.476 296.306,306.869 300.238,308.947 306.916 L 309.295 308.031 305.550 307.916 L 301.806 307.800 300.736 304.701 C 299.016 299.717,297.042 296.956,293.622 294.748 C 291.320 293.262,290.936 293.299,290.194 295.077 M170.165 298.125 C 171.550 302.568,171.603 302.400,168.824 302.400 C 166.029 302.400,165.923 302.296,166.581 300.200 C 166.858 299.320,167.322 297.790,167.613 296.800 C 168.566 293.555,168.775 293.663,170.165 298.125 M293.840 295.531 C 297.035 297.848,300.007 302.415,300.652 306.000 C 301.062 308.276,301.318 308.400,305.625 308.400 C 309.934 308.400,310.328 308.195,309.416 306.432 C 306.576 300.940,311.852 296.112,320.290 296.482 L 323.000 296.600 323.109 304.100 L 323.218 311.600 304.785 311.600 L 286.352 311.600 286.476 310.100 L 286.600 308.600 291.700 308.488 C 297.571 308.359,297.424 308.497,295.939 304.530 C 295.065 302.193,291.760 298.400,290.597 298.400 C 289.676 298.400,289.591 297.787,290.271 296.055 C 291.049 294.074,291.699 293.979,293.840 295.531 M251.867 296.267 C 251.720 296.413,251.600 299.113,251.600 302.267 L 251.600 308.000 249.000 308.000 C 247.570 308.000,246.400 308.135,246.399 308.300 C 246.399 308.465,247.659 308.540,249.199 308.467 L 252.000 308.334 252.006 302.867 C 252.013 296.478,252.079 296.305,254.440 296.474 L 256.200 296.600 256.309 304.088 L 256.418 311.575 251.509 311.701 L 246.600 311.827 251.700 311.914 L 256.800 312.000 256.800 304.000 L 256.800 296.000 254.467 296.000 C 253.183 296.000,252.013 296.120,251.867 296.267 M277.067 296.267 C 276.920 296.413,276.794 300.418,276.787 305.167 C 276.772 315.389,276.268 316.594,272.588 315.195 C 270.652 314.460,268.584 317.576,270.300 318.643 C 273.189 320.439,277.700 320.148,279.979 318.020 C 281.729 316.385,281.995 314.654,281.998 304.900 L 282.000 296.000 279.667 296.000 C 278.383 296.000,277.213 296.120,277.067 296.267 M281.508 305.325 C 281.631 315.246,281.295 316.822,278.727 318.388 C 276.580 319.697,270.000 319.176,270.000 317.697 C 270.000 316.469,271.215 315.800,273.447 315.800 C 277.342 315.800,277.600 315.111,277.600 304.719 L 277.600 296.356 279.500 296.478 L 281.400 296.600 281.508 305.325 M316.114 299.881 C 311.232 300.825,312.897 308.898,317.857 308.331 L 319.000 308.200 319.115 304.233 C 319.252 299.535,319.093 299.304,316.114 299.881 M318.400 304.000 L 318.400 308.000 317.169 308.000 C 313.238 308.000,312.294 301.897,316.000 300.443 C 318.325 299.531,318.400 299.641,318.400 304.000 " stroke="none" fill="#62a389" fill-rule="evenodd"></path></g></svg>